<svg width="78" height="50" viewBox="0 0 78 50" fill="none" xmlns="http://www.w3.org/2000/svg">
<g filter="url(#filter0_d_341_761)">
<rect x="8" y="6" width="62" height="34" rx="5" fill="#FFFDFD"/>
<path d="M18.1298 17.8V29H16.9778V18.824H14.3377V17.8H18.1298ZM23.961 17.8V29H22.809V18.824H20.169V17.8H23.961Z" fill="black"/>
<path fill-rule="evenodd" clip-rule="evenodd" d="M55.3193 14.6204L51.8308 15.6688L54.1541 21.7449C55.5542 21.4019 57.0323 21.6054 58.2876 22.3139C59.5429 23.0224 60.481 24.1827 60.911 25.5586C61.341 26.9344 61.2304 28.4224 60.6019 29.7196C59.9734 31.0168 58.8742 32.0258 57.528 32.541C56.1817 33.0563 54.6898 33.0392 53.3557 32.4932C52.0217 31.9471 50.9459 30.9132 50.3473 29.6019C49.7487 28.2906 49.6724 26.8005 50.1338 25.4349C50.5952 24.0693 51.5597 22.9308 52.8309 22.2513L51.6636 19.1984L47.6388 27.5581C47.5808 27.6782 47.4901 27.7795 47.377 27.8503C47.264 27.9211 47.1333 27.9586 46.9999 27.9584H44.1227C43.9409 29.3873 43.2218 30.6933 42.1116 31.6111C41.0014 32.5289 39.5833 32.9894 38.1457 32.8992C36.7081 32.809 35.3588 32.1748 34.372 31.1255C33.3852 30.0762 32.835 28.6904 32.8333 27.25C32.8322 25.8078 33.381 24.4195 34.368 23.3679C35.3549 22.3163 36.7057 21.6806 38.1451 21.5903C39.5844 21.4999 41.0041 21.9618 42.1147 22.8818C43.2254 23.8018 43.9435 25.1107 44.1227 26.5417H45.8935L42.4368 16.863C42.4096 16.7866 42.3957 16.7061 42.3958 16.625H41.3333C41.1454 16.625 40.9652 16.5504 40.8324 16.4176C40.6995 16.2847 40.6249 16.1045 40.6249 15.9167C40.6249 15.7288 40.6995 15.5487 40.8324 15.4158C40.9652 15.283 41.1454 15.2084 41.3333 15.2084H44.5208C44.7086 15.2084 44.8888 15.283 45.0216 15.4158C45.1545 15.5487 45.2291 15.7288 45.2291 15.9167C45.2291 16.1045 45.1545 16.2847 45.0216 16.4176C44.8888 16.5504 44.7086 16.625 44.5208 16.625H43.8563L45.1611 20.2779L50.9177 17.2484L50.2342 15.4612C50.1994 15.3702 50.1837 15.273 50.1882 15.1757C50.1927 15.0784 50.2172 14.983 50.2602 14.8956C50.3032 14.8082 50.3638 14.7305 50.4382 14.6676C50.5126 14.6047 50.5991 14.5577 50.6925 14.5298L54.912 13.264L55.3193 14.6204V14.6204ZM45.642 21.6259L47.0389 25.5359L50.0351 19.3139L45.642 21.6259V21.6259ZM54.8383 27.5029L53.3416 23.5879C52.4238 24.1294 51.7429 24.996 51.4339 26.0158C51.1248 27.0356 51.2102 28.1344 51.673 29.0942C52.1358 30.0541 52.9424 30.8051 53.9328 31.1984C54.9232 31.5916 56.0252 31.5985 57.0205 31.2175C58.0157 30.8366 58.8315 30.0957 59.3062 29.1416C59.7809 28.1876 59.8799 27.09 59.5835 26.0664C59.2872 25.0428 58.6171 24.1679 57.7061 23.615C56.7951 23.0622 55.7096 22.8718 54.6648 23.0815L56.1615 26.9971C56.2255 27.1719 56.2182 27.3649 56.141 27.5343C56.0639 27.7037 55.9232 27.836 55.7493 27.9024C55.5754 27.9689 55.3824 27.9642 55.2119 27.8895C55.0414 27.8147 54.9072 27.6758 54.8383 27.5029V27.5029ZM42.6911 26.5417H38.4999C38.3121 26.5417 38.1319 26.6163 37.9991 26.7491C37.8662 26.882 37.7916 27.0622 37.7916 27.25C37.7916 27.4379 37.8662 27.618 37.9991 27.7509C38.1319 27.8837 38.3121 27.9584 38.4999 27.9584H42.6911C42.5107 29.0067 41.9438 29.9494 41.1023 30.6002C40.2608 31.251 39.2059 31.5627 38.1458 31.4737C37.0857 31.3848 36.0975 30.9017 35.3763 30.1197C34.655 29.3377 34.2531 28.3138 34.2499 27.25C34.2489 26.1837 34.6488 25.156 35.3703 24.3708C36.0917 23.5855 37.082 23.1002 38.1445 23.011C39.2071 22.9219 40.2644 23.2354 41.1066 23.8894C41.9488 24.5434 42.5144 25.4901 42.6911 26.5417V26.5417Z" fill="black"/>
<rect x="8.75" y="6.75" width="60.5" height="32.5" rx="4.25" stroke="#286EF1" stroke-width="1.5"/>
</g>
<defs>
<filter id="filter0_d_341_761" x="0" y="0" width="78" height="50" filterUnits="userSpaceOnUse" color-interpolation-filters="sRGB">
<feFlood flood-opacity="0" result="BackgroundImageFix"/>
<feColorMatrix in="SourceAlpha" type="matrix" values="0 0 0 0 0 0 0 0 0 0 0 0 0 0 0 0 0 0 127 0" result="hardAlpha"/>
<feOffset dy="2"/>
<feGaussianBlur stdDeviation="4"/>
<feComposite in2="hardAlpha" operator="out"/>
<feColorMatrix type="matrix" values="0 0 0 0 0 0 0 0 0 0 0 0 0 0 0 0 0 0 0.25 0"/>
<feBlend mode="normal" in2="BackgroundImageFix" result="effect1_dropShadow_341_761"/>
<feBlend mode="normal" in="SourceGraphic" in2="effect1_dropShadow_341_761" result="shape"/>
</filter>
</defs>
</svg>

